<?xml version="1.0" encoding="UTF-8"?>
<svg version="1.1" xmlns="http://www.w3.org/2000/svg" width="300" height="80">
<path d="M0 0 C99 0 198 0 300 0 C300 26.4 300 52.8 300 80 C201 80 102 80 0 80 C0 53.6 0 27.2 0 0 Z " fill="#FDFDFD" transform="translate(0,0)"/>
<path d="M0 0 C0.45127331 6.09218971 -0.60739872 10.07939706 -3.04296875 15.65625 C-4.16548544 18.40527045 -4.68966883 21.05185388 -5 24 C-2.69 22.35 -0.38 20.7 2 19 C0.92590541 22.4371027 -0.50586419 24.57307487 -2.875 27.1875 C-6.70605611 32.04389959 -7.5284705 37.52944553 -8.61865234 43.47729492 C-9.95946562 50.68358766 -12.12313039 56.24253412 -18 61 C-20.625 61.5 -20.625 61.5 -23 61 C-24.62890625 59.765625 -24.62890625 59.765625 -26 58 C-26.30078125 55.765625 -26.30078125 55.765625 -26.3125 53.25 C-26.65325447 48.26193455 -28.06963303 46.09433172 -31.50390625 42.5859375 C-36.63759903 37.14395507 -37.27381806 30.37249318 -37.14453125 23.26171875 C-36.63232877 15.24644208 -32.85261422 9.54002888 -27.07421875 4.23046875 C-19.62517797 -1.71429972 -8.7904905 -5.09242208 0 0 Z " fill="#7AB3FD" transform="translate(220,13)"/>
<path d="M0 0 C7.84546148 2.76898641 14.30617486 7.57199279 18.04296875 15.1015625 C20.97400961 22.89014994 21.15553587 31.25459376 18 39 C13.2606714 46.57433484 7.35430093 52.20776128 -1.4375 54.6875 C-4.63646683 55.07761791 -7.78001019 55.01883035 -11 55 C-8.0703125 43.28125 -8.0703125 43.28125 -7.52587891 41.140625 C-7.17665403 39.71908194 -6.85054237 38.29165162 -6.54833984 36.859375 C-5.57879498 32.42716992 -4.29629294 29.46227311 -1.375 26 C-0.42753906 24.8553125 -0.42753906 24.8553125 0.5390625 23.6875 C1.02117187 23.130625 1.50328125 22.57375 2 22 C1.38125 22.495 0.7625 22.99 0.125 23.5 C-2 25 -2 25 -4 25 C-3.70125706 20.45704699 -3.31151422 16.69779185 -1.4375 12.5 C0.34323882 8.1642881 0.28253744 4.61477812 0 0 Z " fill="#7BB4FE" transform="translate(219,12)"/>
<path d="M0 0 C4.68139254 -0.02465288 9.36274759 -0.04283739 14.04418945 -0.05493164 C15.63794614 -0.05997157 17.23169819 -0.0668035 18.82543945 -0.07543945 C21.11150253 -0.08751999 23.39750467 -0.09323155 25.68359375 -0.09765625 C26.40026718 -0.10281754 27.11694061 -0.10797882 27.85533142 -0.11329651 C29.57063672 -0.11349263 31.28581266 -0.06192007 33 0 C34.87643761 1.87643761 34.17984987 4.49805701 34.23046875 6.9921875 C34 9 34 9 32 12 C31.7525 11.030625 31.505 10.06125 31.25 9.0625 C30.36969431 5.96045299 30.36969431 5.96045299 28.3125 5.125 C27.549375 5.08375 26.78625 5.0425 26 5 C24.824375 4.9175 23.64875 4.835 22.4375 4.75 C19.13499732 4.69263349 19.13499732 4.69263349 17.359375 6.16015625 C15.55085713 8.60789165 15.27041088 10.69346735 14.8125 13.6875 C14.65394531 14.68136719 14.49539062 15.67523438 14.33203125 16.69921875 C14.22246094 17.45847656 14.11289063 18.21773437 14 19 C15.65 18.67 17.3 18.34 19 18 C19.66 16.02 20.32 14.04 21 12 C21.33 12 21.66 12 22 12 C22 16.95 22 21.9 22 27 C21.34 26.67 20.68 26.34 20 26 C20 25.34 20 24.68 20 24 C18.02 24 16.04 24 14 24 C14.14042877 25.64630328 14.28749329 27.29204179 14.4375 28.9375 C14.51871094 29.85402344 14.59992188 30.77054688 14.68359375 31.71484375 C14.76044976 33.96159732 14.76044976 33.96159732 16 35 C20.14750241 35.44559943 23.8686177 35.46283822 27.75 33.875 C31.83316548 30.4723621 34.83700627 26.23256097 38 22 C38.05479286 23.8538252 38.09314594 25.7081388 38.125 27.5625 C38.14820313 28.59503906 38.17140625 29.62757812 38.1953125 30.69140625 C38 34 38 34 36 41 C26.1 41.33 16.2 41.66 6 42 C5.98582031 39.47085938 5.97164062 36.94171875 5.95703125 34.3359375 C5.92637486 31.8734015 5.88729575 29.41113228 5.84741211 26.94873047 C5.8242844 25.24374904 5.80984867 23.53862581 5.80444336 21.83349609 C5.79511488 19.37508313 5.75404475 16.91888422 5.70703125 14.4609375 C5.7109639 13.70444916 5.71489655 12.94796082 5.71894836 12.16854858 C5.56431275 6.49820622 3.99130213 4.01629985 0 0 Z " fill="#0E0E0E" transform="translate(58,18)"/>
<path d="M0 0 C0.99 0 1.98 0 3 0 C3.55208165 5.24477564 1.97115667 8.87444977 -0.04296875 13.5859375 C-1.14402444 16.36329431 -1.68761276 19.03232127 -2 22 C0.31 20.35 2.62 18.7 5 17 C3.92590541 20.4371027 2.49413581 22.57307487 0.125 25.1875 C-3.70605611 30.04389959 -4.5284705 35.52944553 -5.61865234 41.47729492 C-6.95946562 48.68358766 -9.12313039 54.24253412 -15 59 C-17.94168944 59.5603218 -19.23427646 59.49225085 -21.75 57.875 C-23.64803782 55.02794328 -24 53.47611746 -24 50 C-21.73376518 42.32538884 -16.47526727 36.87069897 -11.01489258 31.29077148 C-7.99627709 28.63368023 -7.99627709 28.63368023 -7 25 C-7.886875 25.515625 -8.77375 26.03125 -9.6875 26.5625 C-13.1914242 28.08307088 -14.47924335 28.30770961 -18 27 C-20.99046403 21.01907195 -18.80938495 13.2696421 -16.94921875 7.2265625 C-15.9273772 4.82965023 -14.64131708 3.01371676 -13 1 C-11.74368687 5.52272727 -11.74368687 5.52272727 -12.90625 7.6875 C-14.43590745 10.9216329 -14.71981454 14.23617856 -15.125 17.75 C-15.21136719 18.44738281 -15.29773438 19.14476563 -15.38671875 19.86328125 C-15.59771846 21.57472332 -15.79975501 23.28726629 -16 25 C-9.76257438 22.09381437 -9.76257438 22.09381437 -5.0625 17.25 C-3.96626845 13.89682114 -3.16726256 10.58052048 -2.47265625 7.125 C-1.91539717 4.61963686 -1.05529852 2.33673245 0 0 Z " fill="#111213" transform="translate(217,15)"/>
<path d="M0 0 C4.80354522 1.69013628 7.07297617 3.90216664 10 8 C11.32 9.65 12.64 11.3 14 13 C9.71 13 5.42 13 1 13 C1 11.02 1 9.04 1 7 C-0.93889246 4.64360592 -0.93889246 4.64360592 -4.4375 4.625 C-7.96482679 4.62513386 -7.96482679 4.62513386 -9.69921875 6.65234375 C-11.32608217 9.58851467 -11.40030361 11.59320654 -11.375 14.9375 C-11.38273438 15.95714844 -11.39046875 16.97679688 -11.3984375 18.02734375 C-10.94175255 21.43457166 -10.16540598 23.33338769 -8 26 C-5.95714939 26.60024521 -5.95714939 26.60024521 -3.8125 26.3125 C-2.554375 26.209375 -1.29625 26.10625 0 26 C0.66 24.02 1.32 22.04 2 20 C4.64 20 7.28 20 10 20 C8.60991124 25.25144641 5.1957125 27.87300672 1 31 C-2.60866556 32.80433278 -6.28454229 32.53029046 -10.09765625 31.3515625 C-14.32119685 29.50425689 -17.29627365 27.43093315 -19.375 23.125 C-21.06104606 17.39244339 -20.92183065 11.95002637 -18.375 6.5625 C-12.71683997 0.45764313 -8.14059266 -1.08718013 0 0 Z " fill="#101010" transform="translate(166,26)"/>
<path d="M0 0 C3.08859947 1.35335595 5.007964 2.80886249 7.1875 5.375 C7.95126953 6.25285156 7.95126953 6.25285156 8.73046875 7.1484375 C11.54897986 11.25912754 11.49005493 16.16297633 11 21 C8.97106569 27.53767722 5.45850804 32.1442152 -0.5625 35.375 C-3.14146537 36.03627317 -5.3496199 36.0440995 -8 36 C-7.32162612 28.32735753 -6.5777122 22.45132565 -1.33984375 16.5859375 C0.23070772 14.92566431 0.23070772 14.92566431 1 12 C0.54625 12.495 0.0925 12.99 -0.375 13.5 C-2 15 -2 15 -4 15 C-3.63495936 9.33557626 -2.9445679 4.99296295 0 0 Z " fill="#FAFBFC" transform="translate(219,22)"/>
<path d="M0 0 C0 2.31 0 4.62 0 7 C0.59167969 6.4946875 1.18335937 5.989375 1.79296875 5.46875 C2.97826172 4.49421875 2.97826172 4.49421875 4.1875 3.5 C4.96480469 2.8503125 5.74210937 2.200625 6.54296875 1.53125 C9.350834 -0.21864376 10.75313928 -0.46538337 14 0 C16.3125 1.875 16.3125 1.875 18 5 C18.32796802 8.40982628 18.18348705 11.55961782 18 15 C12.06 15.495 12.06 15.495 6 16 C6.99 14.35 7.98 12.7 9 11 C8.67 10.01 8.34 9.02 8 8 C4.06924356 8.57452746 4.06924356 8.57452746 1 11 C0.28144734 17.75626135 0.08384746 24.20409424 4 30 C4.33 30.66 4.66 31.32 5 32 C1.04 32 -2.92 32 -7 32 C-6.98839844 30.80503906 -6.97679688 29.61007813 -6.96484375 28.37890625 C-6.25314618 14.25389056 -6.25314618 14.25389056 -10 1 C-6.56484998 0.37542727 -3.50935186 0 0 0 Z " fill="#0A0A0A" transform="translate(109,30)"/>
<path d="M0 0 C-0.01160156 1.05960938 -0.02320313 2.11921875 -0.03515625 3.2109375 C-0.04453476 4.59895658 -0.05363489 5.98697755 -0.0625 7.375 C-0.07087891 8.07367188 -0.07925781 8.77234375 -0.08789062 9.4921875 C-0.1835442 13.37295376 -0.1835442 13.37295376 1 17 C4.9492568 16.44894091 8.34920174 15.61064629 12 14 C11.52042767 18.28553996 8.7812778 20.76931405 5.9375 23.75 C5.46505859 24.25660156 4.99261719 24.76320313 4.50585938 25.28515625 C3.34369289 26.52949613 2.17269839 27.76558064 1 29 C-5.95348837 23.70930233 -5.95348837 23.70930233 -7 19 C-7.55976214 12.93421385 -7.4497349 8.23848632 -4 3 C-1.4 0 -1.4 0 0 0 Z " fill="#F5F6F7" transform="translate(199,25)"/>
<path d="M0 0 C1.8871875 0.0309375 1.8871875 0.0309375 3.8125 0.0625 C3.64127919 6.78680827 2.33979774 11.93316799 -2.1875 17.0625 C-6.96875 20.0625 -6.96875 20.0625 -10.1875 20.0625 C-10.46470032 13.40969239 -10.23023737 7.14797474 -7.1875 1.0625 C-4.43671116 0.14557039 -2.82801087 -0.04636083 0 0 Z " fill="#F7F7F7" transform="translate(211.1875,19.9375)"/>
<path d="M0 0 C3.3 0 6.6 0 10 0 C9.835 1.134375 9.67 2.26875 9.5 3.4375 C8.65769939 10.33459923 8.31324875 16.45104383 11 23 C6.05 23.495 6.05 23.495 1 24 C1.165 22.948125 1.33 21.89625 1.5 20.8125 C2.25711395 14.89421488 2.08169679 8.95478821 2 3 C1.34 2.67 0.68 2.34 0 2 C0 1.34 0 0.68 0 0 Z " fill="#090909" transform="translate(131,33)"/>
<path d="M0 0 C0.33 0 0.66 0 1 0 C0.63963211 8.63081103 -1.19775981 16.32742378 -7 23 C-8.65 22.67 -10.3 22.34 -12 22 C-12.39214013 15.33361775 -10.98337349 12.38352779 -6.7734375 7.32421875 C-5.98195312 6.45410156 -5.19046875 5.58398438 -4.375 4.6875 C-3.57835937 3.80449219 -2.78171875 2.92148437 -1.9609375 2.01171875 C-1.31382812 1.34785156 -0.66671875 0.68398438 0 0 Z " fill="#77AEF4" transform="translate(208,48)"/>
<path d="M0 0 C0.66 0.33 1.32 0.66 2 1 C1.49769755 4.34868297 0.86605902 7.60465772 0 10.875 C-1.04088253 14.89871009 -1.55746152 18.86964083 -2 23 C-2.33 23 -2.66 23 -3 23 C-3.144375 22.2575 -3.28875 21.515 -3.4375 20.75 C-3.91805487 18.12410384 -3.91805487 18.12410384 -4.6171875 16.140625 C-5.1091503 13.38964935 -4.53960813 11.6492082 -3.6875 9 C-3.42324219 8.154375 -3.15898437 7.30875 -2.88671875 6.4375 C-2.06780273 4.18638282 -1.1207748 2.11430007 0 0 Z " fill="#13181E" transform="translate(203,16)"/>
<path d="M0 0 C2.31 0.66 4.62 1.32 7 2 C7 5 7 5 5 8 C3.35 7.67 1.7 7.34 0 7 C0 4.69 0 2.38 0 0 Z " fill="#E4E6EA" transform="translate(196,63)"/>
<path d="M0 0 C-0.33 2.97 -0.66 5.94 -1 9 C-3.97 8.505 -3.97 8.505 -7 8 C-5.84316054 5.30070793 -3.38550714 0 0 0 Z " fill="#EBECEC" transform="translate(209,48)"/>
<path d="M0 0 C2.625 0.375 2.625 0.375 5 1 C4.67 2.65 4.34 4.3 4 6 C2.35 6 0.7 6 -1 6 C-1.625 4.125 -1.625 4.125 -2 2 C-1.34 1.34 -0.68 0.68 0 0 Z " fill="#0B0B0B" transform="translate(134,23)"/>
<path d="M0 0 C0.66 0 1.32 0 2 0 C1.67 3.63 1.34 7.26 1 11 C0.67 11 0.34 11 0 11 C-0.144375 10.2575 -0.28875 9.515 -0.4375 8.75 C-0.93631867 6.07188726 -0.93631867 6.07188726 -1.6875 3.8125 C-1.790625 3.214375 -1.89375 2.61625 -2 2 C-1.34 1.34 -0.68 0.68 0 0 Z " fill="#1F1F1F" transform="translate(200,28)"/>
</svg>
